PathFileType	4	(X/Y/Z)	./resultDataOpenSim/trcMotMarkerGrf/sub09/qtm-14-02.trc
DataRate	CameraRate	NumFrames	NumMarkers	Units	OrigDataRate	OrigDataStartFrame	OrigNumFrames
250.000000	250.000000	11	24	m	250.000000	373	496
Frame#	Time	L.Toe.Tip			R.Toe.Tip			L.Ankle.Lat			R.Ankle.Lat			L.Ankle.Med			R.Ankle.Med			L.Heel			R.Heel			L.Knee.Lat			R.Knee.Lat			L.Knee.Med			R.Knee.Med			L.Thigh.Upper			R.Thigh.Upper			L.ASIS			R.ASIS			V.Sacral			L.Acromium			R.Acromium			C7			L.Elbow			R.Elbow			L.Wrist.Lat			R.Wrist.Lat
		X1	Y1	Z1	X2	Y2	Z2	X3	Y3	Z3	X4	Y4	Z4	X5	Y5	Z5	X6	Y6	Z6	X7	Y7	Z7	X8	Y8	Z8	X9	Y9	Z9	X10	Y10	Z10	X11	Y11	Z11	X12	Y12	Z12	X13	Y13	Z13	X14	Y14	Z14	X15	Y15	Z15	X16	Y16	Z16	X17	Y17	Z17	X18	Y18	Z18	X19	Y19	Z19	X20	Y20	Z20	X21	Y21	Z21	X22	Y22	Z22	X23	Y23	Z23	X24	Y24	Z24

373	1.488	0.84453776	0.1478621	-0.0801839	1.038761	0.039771223	0.036625346	0.7888178	0.29365525	-0.10842836	0.89424967	0.075798373	0.071832034	0.81438292	0.27927093	-0.013570541	0.92142125	0.11992769	-0.014899761	0.71381045	0.32119008	-0.058995404	0.82514689	0.0716315	0.018716372	1.1297394	0.51108124	-0.12664929	1.0547232	0.49965838	0.1662143	1.137243	0.49820395	-1.4202402e-05	1.0468187	0.49607759	0.039087542	0.97362443	0.89080498	-0.14050104	0.97927942	0.90196251	0.23123567	1.0509642	0.97500336	-0.081702188	1.0656509	0.98179469	0.15553311	0.89447867	1.0441013	0.042199939	1.0865999	1.4261261	-0.13494549	1.0816193	1.4418816	0.19589681	1.0190071	1.4881644	0.029530826	0.9234167	1.0938052	-0.18827657	0.91547556	1.1158288	0.2863724	1.0439874	0.86195166	-0.23497745	1.0682903	0.88532755	0.31883045
374	1.492	0.86196516	0.14493462	-0.080404348	1.0388935	0.039791884	0.036731604	0.80241956	0.28891707	-0.10899332	0.89459965	0.076672566	0.072054613	0.82810564	0.27528132	-0.013985872	0.92220919	0.12066493	-0.014706556	0.72634494	0.31467466	-0.059596501	0.82581815	0.072994221	0.018830381	1.138698	0.51392892	-0.12651447	1.0563594	0.50017993	0.16662889	1.1461995	0.50120824	-5.4601798e-05	1.0487844	0.49648658	0.039269871	0.98020805	0.8925862	-0.14072586	0.98338796	0.90313035	0.23104689	1.056485	0.97691857	-0.081635825	1.070646	0.98315996	0.15555007	0.89977227	1.045502	0.041911621	1.091002	1.4280254	-0.13502272	1.0862232	1.4435489	0.19590953	1.0234564	1.4897442	0.029660468	0.92750251	1.096162	-0.18819784	0.92079143	1.116869	0.28657988	1.0461282	0.86355515	-0.23586196	1.0757019	0.88750635	0.31753737
375	1.496	0.87956295	0.14193688	-0.080474487	1.0390374	0.039832329	0.036849647	0.81614453	0.28401591	-0.10949783	0.89494963	0.077539066	0.072268808	0.84203529	0.27114943	-0.014416978	0.92302227	0.12135341	-0.014545005	0.73906332	0.30793338	-0.060148228	0.82641856	0.074280312	0.019033564	1.1475457	0.5166363	-0.12634334	1.057924	0.50069798	0.16691267	1.1545688	0.50412476	-9.9514254e-05	1.0507548	0.49687126	0.039402752	0.98652799	0.89432877	-0.14098608	0.98768758	0.90425523	0.23083549	1.062078	0.97876247	-0.081589015	1.0756495	0.98447764	0.15556814	0.90507217	1.0468282	0.041608167	1.0954144	1.4298851	-0.13511343	1.0908662	1.4451998	0.19591983	1.0278891	1.4912633	0.029783655	0.93168166	1.0985135	-0.1880196	0.92610208	1.1178621	0.28679747	1.0483265	0.86514859	-0.23672474	1.0830702	0.88964981	0.31626764
376	1.5	0.89744256	0.13894892	-0.080417331	1.0391884	0.039901893	0.036983792	0.82995329	0.27898852	-0.10990916	0.89531199	0.078399748	0.072487424	0.85635453	0.26687057	-0.014879872	0.92376916	0.12204209	-0.01431399	0.75196689	0.30096148	-0.060618383	0.826971	0.07549508	0.019297147	1.1563042	0.51920415	-0.12613801	1.0594645	0.50121182	0.16710576	1.162625	0.5069742	-0.00013580699	1.0526725	0.49724725	0.039499417	0.99312881	0.89595676	-0.14123664	0.9921431	0.90533999	0.23060522	1.0677046	0.98054346	-0.081544913	1.0806475	0.98573477	0.15559392	0.91035895	1.0480858	0.041306255	1.09983	1.4316724	-0.13517131	1.0955051	1.4468175	0.19593313	1.0323062	1.4927136	0.029904031	0.93590458	1.1008223	-0.18781879	0.93141195	1.1188038	0.28702236	1.0505812	0.86672742	-0.23757035	1.0903787	0.89175743	0.31502279
377	1.504	0.91541115	0.1359979	-0.080248651	1.0393355	0.039981625	0.037123204	0.84384934	0.27383441	-0.11023298	0.89569421	0.079244327	0.072705294	0.87106615	0.26244749	-0.015352972	0.92440995	0.12279529	-0.013910359	0.76507036	0.29377264	-0.06103462	0.82746671	0.076679469	0.01953316	1.1649451	0.52164546	-0.12591127	1.0610212	0.50172043	0.16725273	1.1707832	0.5097745	-0.00015236148	1.0544933	0.49762833	0.039581829	1.0001136	0.89749061	-0.14149541	0.99672734	0.90637853	0.23034819	1.0733399	0.98227269	-0.081497768	1.085635	0.98692603	0.15562886	0.91561845	1.0492833	0.041011203	1.1042491	1.4333776	-0.13517183	1.1000982	1.4483597	0.1959611	1.0367324	1.4941008	0.030027867	0.94008866	1.1030336	-0.18770065	0.93671993	1.1196881	0.28725018	1.0528913	0.86828453	-0.2384021	1.0976254	0.89382767	0.31380154
378	1.508	0.93323456	0.13305744	-0.08000383	1.0394725	0.040030505	0.037247849	0.8578483	0.26853594	-0.11048518	0.89609186	0.080063242	0.072898879	0.88582392	0.25790839	-0.01573885	0.92503003	0.12364257	-0.013346598	0.77839236	0.28638563	-0.061448851	0.82788212	0.077854162	0.019679452	1.1734205	0.52397737	-0.12567824	1.0626071	0.50222161	0.1673675	1.1792585	0.51251661	-0.00012821264	1.0562508	0.4980165	0.039666074	1.0067994	0.89904472	-0.14179311	1.0014827	0.90736731	0.23003759	1.078991	0.98395345	-0.081452694	1.0906185	0.98806076	0.15567069	0.92082794	1.0504068	0.040719162	1.108677	1.4350124	-0.1351247	1.1046554	1.4498044	0.19600494	1.0411912	1.4954411	0.030166064	0.9441998	1.1051326	-0.18769769	0.94202198	1.120511	0.28747592	1.0552548	0.86981293	-0.23922223	1.1048333	0.89586054	0.3125962
379	1.512	0.95097498	0.13009131	-0.079717216	1.0395875	0.039993796	0.037338167	0.87196592	0.26308384	-0.11067448	0.89650388	0.080854994	0.073046528	0.90037718	0.2532727	-0.015969296	0.92565325	0.12453307	-0.012807579	0.79193115	0.27880856	-0.061877596	0.8282381	0.07901045	0.019748146	1.1817071	0.52619396	-0.1254399	1.0642116	0.50270935	0.1674458	1.1878562	0.51515011	-4.1966843e-05	1.0579955	0.49842183	0.039751456	1.0123474	0.90072674	-0.14213993	1.0064733	0.90830924	0.22964257	1.0846697	0.98558155	-0.081415592	1.0956067	0.98915272	0.15571424	0.92596514	1.0514248	0.040426439	1.1131159	1.436586	-0.13505522	1.1092119	1.4511587	0.19605595	1.0456792	1.4967389	0.030321233	0.94826266	1.1071371	-0.18777078	0.94731488	1.1212715	0.28769387	1.0576745	0.87130544	-0.2400308	1.1120346	0.89785939	0.31139298
380	1.516	0.96883775	0.12707721	-0.079395385	1.0396641	0.039844623	0.037390126	0.88622499	0.25748621	-0.11080296	0.89691943	0.081630074	0.073149443	0.91479119	0.24854111	-0.016063088	0.92609794	0.12535339	-0.012524056	0.80567658	0.27105635	-0.062315826	0.82859368	0.080144309	0.019799382	1.1898058	0.52826748	-0.12518454	1.0658081	0.50317815	0.16748751	1.1961849	0.5176235	9.9717051e-05	1.0596977	0.49888044	0.039824805	1.0165907	0.90253777	-0.14252398	1.0117259	0.90921319	0.22914876	1.0903621	0.98714623	-0.081384783	1.1006029	0.99020611	0.15575504	0.93106094	1.0523356	0.040127306	1.1175653	1.4380968	-0.13498446	1.1137752	1.4524365	0.1961082	1.0501708	1.4979805	0.030475204	0.95231288	1.1090567	-0.18787791	0.95259715	1.1219717	0.28789911	1.060157	0.87275945	-0.24082458	1.1192417	0.89982691	0.31018666
381	1.52	0.98689823	0.12401552	-0.079028879	1.0397316	0.039651841	0.03741659	0.90065575	0.25176226	-0.11087213	0.89729167	0.082403454	0.073236814	0.92918424	0.24371846	-0.016055084	0.926287	0.12605015	-0.012530758	0.81964878	0.26315492	-0.062764946	0.82899468	0.081266558	0.019874528	1.1977089	0.5301897	-0.124906	1.0673883	0.50363085	0.16750275	1.2040786	0.51993054	0.00026449669	1.0613442	0.499412	0.039871708	1.0201504	0.90437162	-0.14292288	1.0171869	0.91008466	0.2285784	1.096046	0.98863297	-0.081351907	1.1056044	0.99121378	0.15579628	0.9361863	1.0531903	0.039816376	1.1220291	1.439539	-0.13491783	1.1183275	1.4536469	0.19616626	1.0546496	1.499152	0.030611337	0.95637202	1.1108904	-0.18800331	0.95786935	1.1226126	0.28808852	1.0627019	0.87417909	-0.24160365	1.126445	0.90176211	0.3089888
382	1.524	1.0051173	0.12092937	-0.078616013	1.0398637	0.03956103	0.037441467	0.91528553	0.24592948	-0.11088703	0.8975848	0.083180839	0.073338287	0.94355623	0.23882345	-0.015943069	0.92648034	0.12669975	-0.01262679	0.83388989	0.25512329	-0.063201827	0.82942577	0.0823843	0.01995313	1.2054299	0.53198132	-0.12460635	1.0689796	0.50407573	0.16749646	1.2116526	0.52209104	0.0004290434	1.0630462	0.49994676	0.039886051	1.023841	0.90610393	-0.14331754	1.022672	0.91090844	0.2280113	1.1017198	0.99003135	-0.081310482	1.1106044	0.99216594	0.15584971	0.94137368	1.0540383	0.039496713	1.1265164	1.4409103	-0.13484922	1.1228573	1.4547942	0.19623962	1.0591268	1.5002503	0.030736349	0.96044666	1.112648	-0.18814791	0.96313354	1.1231913	0.28825969	1.0653032	0.87556605	-0.24237533	1.1336323	0.90365992	0.30781552
383	1.528	1.0234396	0.11784556	-0.07816954	1.0400786	0.03966424	0.037500212	0.93012311	0.24000053	-0.11085255	0.89784193	0.083953583	0.073453591	0.95788756	0.23387371	-0.015721512	0.92692692	0.1273886	-0.012622471	0.8484073	0.24697492	-0.063557788	0.82982921	0.083493497	0.019976112	1.2130821	0.53364615	-0.12428101	1.0706093	0.50451618	0.16745957	1.2190612	0.52411428	0.00059329089	1.0649066	0.50033776	0.039866972	1.0281331	0.90766577	-0.14369854	1.0278419	0.91164066	0.22758668	1.1073972	0.99134093	-0.081261332	1.1155963	0.99305722	0.15592578	0.94661256	1.0548749	0.039167395	1.1310324	1.4422143	-0.13477282	1.1273681	1.4558786	0.19633076	1.0636211	1.5012782	0.030870254	0.9645316	1.1143525	-0.1883119	0.96839223	1.1237049	0.28841162	1.0679608	0.87691233	-0.2431491	1.1408002	0.90551305	0.30667047
